# xmcd CD database file
#
# Track frame offsets:
#	182
#	29602
#	89387
#	102247
#	115235
#	191320
#	245840
#	287070
#
# Disc length: 4137 seconds
#
# Revision: 1
# Processed by: cddbd v1.5PL3 Copyright (c) Steve Scherf et al.
# Submitted via: CDex 1.51
#
DISCID=6d102708
DTITLE=Yochk'o Seffer - Neffesh Music  - Ghilgoul
DYEAR=1995
DGENRE=Jazz
TTITLE0=Dag
TTITLE1=Sifra
TTITLE2=Dailn
TTITLE3=Larma
TTITLE4=Ghilgoul
TTITLE5=Bülent
TTITLE6=Schebira
TTITLE7=Sifra II
EXTD=YEAR: 1995
EXTT0=
EXTT1=
EXTT2=
EXTT3=
EXTT4=
EXTT5=
EXTT6=
EXTT7=
PLAYORDER=
